# xmcd
#
# Track frame offsets:
#	150
#	12889
#	28797
#	36067
#	49910
#	63874
#	73599
#	86150
#	95720
#	103287
#	115315
#	125771
#	151477
#	165999
#	179249
#	190609
#	205288
#	216264
#	228628
#
# Disc length: 3242 seconds
#
# Revision: 1
# Processed by: cddbd v1.5.2PL0 Copyright (c) Steve Scherf et al.
# Submitted via: audiograbber 1.83.01
#
DISCID=180ca813
DTITLE=Hank Williams - The Complete Collection - The Live Recordings
DYEAR=2005
DGENRE=
TTITLE0=You're Gonna Change (Or I'm Gonna Leave)
TTITLE1=I Just Don't Like This Kind of Livin'
TTITLE2=They'll Never Take Her Love from Me
TTITLE3=Long Gone Lonesome Blues
TTITLE4=Why Don't You Love Me
TTITLE5=Dear John
TTITLE6=Hank Williams with the Louvin Brothers - Nobody's Lonesome for Me
TTITLE7=Let the Spirit Descend
TTITLE8=Baby, We're Really In Love
TTITLE9=Hank Williams with Little Jimmie Dickens - The Old Country Church
TTITLE10=I Can't Help It (If I'm Still in Love with You)
TTITLE11=I'm a Long Gone Daddy
TTITLE12=I Cried Again
TTITLE13=The Wild Side of Life
TTITLE14=Hank Williams with Audrey Williams - Something Got a Hold of Me
TTITLE15=Drifting Too Far From Shore
TTITLE16=When God Dips His Love in My Heart
TTITLE17=Are You Walkin' and a Talkin' for the Lord
TTITLE18=Lovesick Blues
EXTD=Disc 2 of 3
EXTT0=
EXTT1=
EXTT2=
EXTT3=
EXTT4=
EXTT5=
EXTT6=
EXTT7=
EXTT8=
EXTT9=
EXTT10=
EXTT11=
EXTT12=
EXTT13=
EXTT14=
EXTT15=
EXTT16=
EXTT17=
EXTT18=
PLAYORDER=
